PathFileType	4	(X/Y/Z)	Patient4_TMGait_0pt7_02_right_19.trc.trc
DataRate	CameraRate	NumFrames	NumMarkers	Units	OrigDataRate	OrigDataStartFrame	OrigNumFrames
86.419753086420	86.419753086420	6	33	mm	86.419753086420	106	       141
Frame#	Time	Sacral			L.Shoulder			Chest			R.Shoulder			Neck			R.ASIS			L.ASIS			R.Thigh.Superior			R.Thigh.Lateral			R.Thigh.Inferior			R.Patella			L.Thigh.Superior			L.Thigh.Lateral			L.Thigh.Inferior			L.Patella			L.Shank.Superior			L.Shank.Lateral			L.Shank.Inferior			R.Shank.Superior			R.Shank.Lateral			R.Shank.Inferior			R.Heel			R.Midfoot.Superior			R.Midfoot.Lateral			R.Toe			L.Heel			L.Midfoot.Lateral			L.Midfoot.Superior			L.Toe			L.Elbow			L.Wrist			R.Elbow			R.Wrist			
		X1	Y1	Z1	X2	Y2	Z2	X3	Y3	Z3	X4	Y4	Z4	X5	Y5	Z5	X6	Y6	Z6	X7	Y7	Z7	X8	Y8	Z8	X9	Y9	Z9	X10	Y10	Z10	X11	Y11	Z11	X12	Y12	Z12	X13	Y13	Z13	X14	Y14	Z14	X15	Y15	Z15	X16	Y16	Z16	X17	Y17	Z17	X18	Y18	Z18	X19	Y19	Z19	X20	Y20	Z20	X21	Y21	Z21	X22	Y22	Z22	X23	Y23	Z23	X24	Y24	Z24	X25	Y25	Z25	X26	Y26	Z26	X27	Y27	Z27	X28	Y28	Z28	X29	Y29	Z29	X30	Y30	Z30	X31	Y31	Z31	X32	Y32	Z32	X33	Y33	Z33	

106	22.155000000000	829.723048418957	1016.090385228643	418.979646820546	1050.605762701820	1426.339168847338	236.018521435476	1137.205539183218	1357.576386987223	406.979542628828	1045.980366546133	1448.527403884023	569.906961425570	1046.173754872677	1493.855517183794	386.785931169504	1045.074134298529	947.772978230457	554.390923299039	1056.079418239734	963.266069706867	279.137706853650	1139.229005479069	796.817929346789	536.382246181693	1106.818424860909	673.951039100710	612.114702073828	1207.547005346499	643.333414273618	543.278308036725	1237.902865468122	535.197656344665	568.965093893296	1084.464676318572	748.379417312437	307.531194409171	987.059556823730	640.625901943264	245.131295879812	1061.102219840259	555.898097382745	310.551655606508	1054.584632358953	488.423697286027	320.894971097361	1028.663715834933	419.314474053611	312.124554222571	939.011779459958	305.671562688301	258.795215089404	986.451468657515	194.867514880533	334.262927040361	1174.197434380401	450.236862432760	571.917159592368	1058.371024511758	390.699116629241	625.669690770307	1066.455209150411	280.136649581548	578.500767294172	881.826694185945	185.359168822921	540.452932048891	1055.775542519955	155.286264354431	592.290156708695	945.039554681507	135.005715656989	616.510735742807	1134.802005405827	53.109970089144	620.503354580878	856.079292548299	39.247032835273	374.486818887669	933.641998069361	35.198985956415	297.032916507670	1015.073472533975	96.317583097700	326.829021752999	1145.094244941932	44.827585537449	305.614216474699	1101.854612461812	1087.852013810435	104.367564951238	1263.120115450462	881.230883268646	118.604144129073	958.398053537447	1119.592745141217	706.905506144996	1084.495130101078	892.413296351833	685.258721185978	
107	22.166571428571	829.302430340029	1015.847778059863	418.556560090062	1051.721212285017	1426.292262290062	236.883897585444	1137.067665735387	1357.165375819336	408.269962056919	1044.775908553762	1447.883837018052	570.599617293012	1046.175694538246	1493.565833607657	387.642918158646	1044.231726649066	947.531548988843	554.922611056366	1056.281863926588	962.913750043097	279.556860095580	1139.021579239448	797.654443617115	536.577153255594	1107.252397485366	674.460474549215	612.262766535567	1207.760656161632	644.314164331258	543.152922922538	1239.880713005100	538.248346422978	568.931821988715	1082.289042476122	747.175844049622	308.828343865107	984.084627042734	640.389946313826	245.323949451700	1056.340214277578	554.900901404940	311.276437688438	1048.915060436843	487.603902042187	321.642456621786	1022.882571267706	418.702170804471	312.680607435531	932.984886960171	305.555049044033	258.846036339708	979.034326471682	194.461426309643	334.673504861584	1180.272598866386	451.506376902549	572.784838735883	1068.973031533029	385.643729797794	628.253455485831	1083.104398448959	275.529048254876	581.463888623399	904.357916811570	170.039835176096	545.668876169122	1080.013915473950	150.169856112612	596.355805446732	970.820825626572	123.820212782166	621.462441609932	1164.715526858703	52.751769048641	624.466787151565	847.941862428140	39.255983919216	374.471770631636	925.496880147763	35.200548187668	297.053010738738	1006.991904201599	96.204703410582	326.981278893909	1137.009770924647	44.547411419390	305.678732047939	1111.006606494338	1091.131494950311	102.630021266426	1282.140480541739	892.582815911407	118.980899939940	951.097714270840	1120.293157677048	707.444241443976	1058.812643464665	882.717150065894	696.506325617444	
108	22.178142857143	829.050186960967	1015.550241411876	418.249461928166	1052.891332236455	1426.211468080154	237.921223112058	1137.034743594289	1356.681661888328	409.692126199296	1043.737146663827	1447.136590988670	571.451961705295	1046.276618869999	1493.203168443430	388.688926062288	1043.440474509936	947.156116181202	555.564209251732	1056.567860232537	962.477010706038	280.140850917689	1138.424296278374	797.797294267994	536.847967641177	1106.911712962856	674.399293805967	612.482626941110	1207.010916572579	644.381994565614	542.997226012985	1240.676681994022	540.618391029391	568.891262054889	1080.217320591487	745.920312770337	310.179727533370	981.142435624790	640.122157946152	245.582238052246	1051.616656111252	553.886813902644	312.015022738661	1043.307951890178	486.774817040880	322.372856274359	1017.117250435050	418.072296445738	313.240961728443	926.942524665377	305.433565686977	258.919688828551	971.634414357315	194.054551211987	335.071317299005	1185.455565993196	452.420589411193	573.679240509921	1079.343450798463	380.214806531447	630.863786120891	1099.877752565299	270.991209604907	584.408810967481	928.154418723583	154.593325332700	550.733334700035	1104.864623216012	145.518067616575	600.325029890653	997.705417148784	112.915865164586	626.301840097681	1195.231511044211	53.553706561665	628.411968519833	839.805585119973	39.273599337539	374.448196254015	917.344469157068	35.199865109119	297.072907078999	998.902337912222	96.094623393095	327.131060598009	1128.913576613112	44.273037572895	305.745051356494	1119.325126892903	1094.474957648751	101.089965805446	1300.139678553499	904.735628404298	119.890714970539	944.260849903037	1121.008493208911	708.067077790196	1033.000043668324	875.027418618343	707.415631445305	
109	22.189714285714	828.981497698547	1015.189144487445	418.057898151772	1054.100322819802	1426.087231932798	239.129168521550	1137.110127830963	1356.125553796883	411.239553450188	1042.889443881022	1446.293016947260	572.476513975077	1046.480927808175	1492.764659543891	389.921034652027	1042.734677363773	946.651438861683	556.324669997668	1056.957663152695	961.972174632802	280.887443906977	1137.433757570147	797.208958192074	537.226932398010	1105.795681287845	673.762106043854	612.826528517722	1205.315672838664	643.534889811679	542.866106626295	1240.304159938829	542.289065040823	568.884708496774	1078.254771612993	744.610093945510	311.545837202129	978.214271484771	639.830875260723	245.896625419872	1046.921525170727	552.853529542468	312.749918067633	1037.756101988144	485.937315518427	323.066297680476	1011.355090548971	417.432242695898	313.789454056836	920.864931191944	305.313210488340	259.014440234095	964.253020703611	193.655142741574	335.443646057119	1189.731428471242	453.004836910324	574.616201699138	1089.419527639379	374.547632738040	633.461957129573	1116.626632190312	266.705098918463	587.275369123024	953.055403083943	139.407649635093	555.505392594155	1130.097986720347	141.542969985686	604.092664864377	1025.464599819908	102.570988401587	630.863565049057	1226.001844972783	55.663604428996	632.168798656141	831.669496705570	39.304574172248	374.415430619428	909.185056032761	35.199846970718	297.092198216137	990.805198235346	95.989776454411	327.273586269638	1120.802958029620	44.008675731402	305.810546073046	1126.824569475346	1097.795282702612	99.757196553382	1317.021974483410	917.604622247643	121.308684873901	937.818615705963	1121.781239831267	708.763200579748	1007.472060265047	869.404992081655	717.757330256609	
110	22.201285714286	829.106415658999	1014.747560772368	417.985852673023	1055.328749759096	1425.906550124797	240.504811929018	1137.293550633488	1355.494880468813	412.903877419284	1042.251142733574	1445.359399750157	573.679541370071	1046.786065130403	1492.244158921973	391.333099178189	1042.153582557010	946.020373250425	557.214485087830	1057.470221385489	961.406499516465	281.791049826993	1136.067860092302	795.872423550990	537.746221290576	1103.943528299010	672.562060640588	613.347186793973	1202.734418621733	641.806073847124	542.812037930916	1238.822114320836	543.263826704260	568.945899669158	1076.401399811575	743.241756858549	312.900678062631	975.295182322762	639.521126131422	246.259980071193	1042.253797376432	551.799184602679	313.473250068127	1032.259063849405	485.089615242337	323.712203229929	1005.592283216970	416.786858435920	314.316193389274	914.743139303930	305.199630071046	259.129113750824	956.889850671008	193.268203661755	335.783307434788	1193.109120144226	453.281225811942	575.606005955250	1099.109848717889	368.775174276731	635.999944609113	1133.151146682411	262.821243594844	590.002853869813	978.765607575998	124.855211673009	559.850658830886	1155.395731902261	138.395808883125	607.562095316850	1053.748411172460	93.019475212381	634.988848250049	1256.590488163240	59.117827242490	635.580028900805	823.533359064251	39.352328724800	374.375075325283	901.019978801011	35.203715116426	297.110777101690	982.702549852777	95.892014102043	327.405383638313	1112.677026591109	43.756492744864	305.873144043639	1133.534831459004	1101.010087452713	98.646809453913	1332.700457217520	931.093241365170	123.206292794423	931.701832862501	1122.655755524838	709.537424146078	982.652207043504	865.819580447194	727.333949472278	
111	22.212857142857	829.431078349949	1014.200631501227	418.044493824751	1056.553080410482	1425.653357482718	242.043271785975	1137.579940356997	1354.785646491175	414.675184192750	1041.829952315656	1444.341060870946	575.060018090255	1047.182107795710	1491.632666283431	392.915307691951	1041.738706400908	945.263629773967	558.244766571248	1058.121929869499	960.778766394606	282.844696515309	1134.370686916008	793.799812136898	538.433733889157	1101.442967157637	670.832334559362	614.089378600438	1199.375857076140	639.267040192080	542.877440603770	1236.339438682362	543.567812002323	569.095901448228	1074.655486320437	741.811707200682	314.233585222208	972.394545156924	639.194272792700	246.669505669661	1037.622715898267	550.722399950107	314.187312634119	1026.824284276924	484.227366707847	324.310725860382	999.834961260657	416.137663682069	314.819038907916	908.579329143238	305.097795255622	259.264035094655	949.544507589195	192.895192661142	336.088793890584	1195.622625409136	453.263827932190	576.650222706364	1108.291148473787	363.020396908223	638.417903281245	1149.198850118483	259.442086506080	592.531453887957	1004.842861243385	111.267898185335	563.646927197676	1180.344938418331	136.145540620478	610.647605620002	1082.075393075137	84.434227696140	638.536234175884	1286.474086046207	63.820769980315	638.514785353272	815.397912480909	39.418109072178	374.330587680438	892.851690191521	35.214455496853	297.128866736082	974.597475427147	95.802425807690	327.524739260230	1104.536935924507	43.516557392696	305.931307398195	1139.495821133361	1104.043321154861	97.778133350029	1347.099690568444	945.093859122392	125.551911530025	925.845288751935	1123.674377615542	710.410536400539	958.939084663263	864.145286899091	735.995253793875	
